<?xml version="1.0" encoding="UTF-8"?>
<svg version="1.1" xmlns="http://www.w3.org/2000/svg" width="70" height="70">
<path d="M0 0 C9.40805396 5.93773964 16.30842293 13.69018445 19.30859375 24.45703125 C20.46113163 35.83682628 19.53743401 45.70482807 12.32421875 55.01953125 C6.1900895 61.63220959 -1.93281428 67.05830922 -11.1328125 67.6953125 C-22.33202377 67.99821514 -30.89354373 66.42205937 -39.875 59.21875 C-43.15909297 56.03353295 -45.48224777 52.44177505 -47.69140625 48.45703125 C-48.03300781 47.86535156 -48.37460937 47.27367187 -48.7265625 46.6640625 C-52.32974676 39.07223705 -51.79624926 29.08456214 -49.8828125 21.0703125 C-46.38582033 11.61996341 -40.25210725 5.03576271 -31.31640625 0.45703125 C-21.8715624 -3.86061165 -9.57163207 -4.5679121 0 0 Z M-36.69140625 17.45703125 C-36.32753224 20.01776482 -36.04423781 21.16390726 -34.02075195 22.8449707 C-31.69048422 24.17085368 -29.35887405 25.48785339 -27.00390625 26.76953125 C-26.20017578 27.23681641 -25.39644531 27.70410156 -24.56835938 28.18554688 C-21.15136942 30.07704499 -18.60162131 31.42414606 -14.6640625 31.56640625 C-10.41026082 29.97891653 -6.67382608 27.77109414 -2.81640625 25.39453125 C-2.03265625 24.92208984 -1.24890625 24.44964844 -0.44140625 23.96289062 C1.48057808 22.80266838 3.3968191 21.63397349 5.30859375 20.45703125 C4.96072667 18.4816638 4.96072667 18.4816638 4.30859375 16.45703125 C1.1638958 14.88468227 -2.2035766 15.29406719 -5.65625 15.2890625 C-6.83991905 15.2840699 -6.83991905 15.2840699 -8.04750061 15.27897644 C-9.71777767 15.27391027 -11.38806487 15.27156802 -13.05834961 15.27172852 C-15.6152411 15.26954293 -18.17170057 15.25138679 -20.72851562 15.23242188 C-22.35025894 15.22948773 -23.9720043 15.22750307 -25.59375 15.2265625 C-26.35944809 15.21937698 -27.12514618 15.21219147 -27.91404724 15.20478821 C-31.71468398 15.22116368 -33.4505396 15.29645349 -36.69140625 17.45703125 Z M-36.69140625 24.45703125 C-37.82022267 35.99268709 -37.82022267 35.99268709 -36.69140625 47.45703125 C-32.93683148 49.96008109 -29.97575527 49.74573382 -25.62890625 49.72265625 C-24.8412085 49.7245697 -24.05351074 49.72648315 -23.24194336 49.72845459 C-21.57763347 49.72981472 -19.91331291 49.72613024 -18.24902344 49.71777344 C-15.70092956 49.70707125 -13.15354069 49.71767426 -10.60546875 49.73046875 C-8.98827969 49.72914712 -7.37109108 49.72658467 -5.75390625 49.72265625 C-4.6100647 49.72872894 -4.6100647 49.72872894 -3.44311523 49.73492432 C0.34358049 49.70134062 2.08007641 49.60937615 5.30859375 47.45703125 C5.72504725 45.0360377 5.72504725 45.0360377 5.6015625 42.23046875 C5.59189453 41.19921875 5.58222656 40.16796875 5.57226562 39.10546875 C5.54712891 38.02523437 5.52199219 36.945 5.49609375 35.83203125 C5.48255859 34.7440625 5.46902344 33.65609375 5.45507812 32.53515625 C5.41964129 29.84195716 5.37023706 27.14973751 5.30859375 24.45703125 C-0.33581696 26.12011655 -4.76146515 28.85068862 -9.69140625 31.99609375 C-13.19154232 33.7005871 -14.84684836 34.05953659 -18.69140625 33.45703125 C-21.58207381 32.17981031 -24.24599699 30.6009347 -26.94140625 28.95703125 C-28.36117853 28.10974779 -29.78296181 27.26582221 -31.20703125 26.42578125 C-31.82868164 26.04873047 -32.45033203 25.67167969 -33.09082031 25.28320312 C-34.68740312 24.30414107 -34.68740312 24.30414107 -36.69140625 24.45703125 Z " fill="#3b2f2f" transform="translate(50.69140625,2.54296875)"/>
<path d="M0 0 C1.258125 0.86625 2.51625 1.7325 3.8125 2.625 C7.38617664 4.98678314 10.98968211 7.27452981 14.6875 9.4375 C15.99267578 10.20900391 15.99267578 10.20900391 17.32421875 10.99609375 C20.81252327 12.3048445 22.42423335 12.05916221 26 11 C28.88568416 9.63155697 31.62607267 8.06051044 34.375 6.4375 C35.11105469 6.01275391 35.84710938 5.58800781 36.60546875 5.15039062 C38.40839699 4.10843859 40.20487053 3.05533146 42 2 C44 4 44 4 44.22705078 6.43017578 C44.21657715 7.4251709 44.20610352 8.42016602 44.1953125 9.4453125 C44.18886719 10.52167969 44.18242188 11.59804688 44.17578125 12.70703125 C44.15902344 13.83496094 44.14226563 14.96289062 44.125 16.125 C44.11597656 17.26066406 44.10695312 18.39632812 44.09765625 19.56640625 C44.07403098 22.37781299 44.04109013 25.18880298 44 28 C43.67 28 43.34 28 43 28 C43 20.74 43 13.48 43 6 C37.33812533 9.27680442 37.33812533 9.27680442 31.69287109 12.58203125 C23.87574823 17.01578088 23.87574823 17.01578088 19 16 C15.74204678 14.54707888 12.69501946 12.81165423 9.625 11 C8.79355469 10.52304687 7.96210938 10.04609375 7.10546875 9.5546875 C5.06368513 8.38124864 3.03091472 7.1921512 1 6 C1 9.3 1 12.6 1 16 C0.67 16 0.34 16 0 16 C0 10.72 0 5.44 0 0 Z " fill="#3b2f2f" transform="translate(13,21)"/>
<path d="M0 0 C2.97 1.98 2.97 1.98 6 4 C5.01 4.99 4.02 5.98 3 7 C2.34 6.67 1.68 6.34 1 6 C1 9.3 1 12.6 1 16 C0.67 16 0.34 16 0 16 C0 10.72 0 5.44 0 0 Z " fill="#3b2f2f" transform="translate(13,21)"/>
<path d="M0 0 C-0.99 1.485 -0.99 1.485 -2 3 C-5.625 3.1875 -5.625 3.1875 -9 3 C-9 2.34 -9 1.68 -9 1 C-5.92677456 0.08941469 -3.19902639 -0.08886184 0 0 Z " fill="#3b2f2f" transform="translate(42,33)"/>
</svg>
