<?xml version="1.0" encoding="UTF-8"?>
<svg version="1.1" xmlns="http://www.w3.org/2000/svg" width="200" height="200">
<path d="M0 0 C19.30626513 17.26056817 32.47789877 39.01451083 35.359375 65.109375 C36.82192246 94.92130138 30.93204579 120.04578697 11.359375 143.109375 C10.82957031 143.78484375 10.29976562 144.4603125 9.75390625 145.15625 C-0.39941582 157.69121552 -17.83375527 169.48156883 -33.640625 173.109375 C-36.578125 172.984375 -36.578125 172.984375 -38.640625 172.109375 C-41.10732755 168.40932117 -40.91982349 165.57236868 -40.9140625 161.29296875 C-40.93437363 159.70767552 -40.95522479 158.12238912 -40.9765625 156.53710938 C-40.99902544 154.05129234 -41.01558018 151.56574735 -41.02148438 149.07983398 C-40.95180395 136.645254 -40.95180395 136.645254 -44.78759766 124.94165039 C-45.640625 123.109375 -45.640625 123.109375 -45.640625 120.109375 C-44.72023438 119.97402344 -43.79984375 119.83867187 -42.8515625 119.69921875 C-30.30582429 117.56567671 -18.43728565 113.8788368 -10.1875 103.49609375 C-7.63729763 99.56131182 -6.00067405 95.58322057 -4.640625 91.109375 C-4.41632813 90.43777344 -4.19203125 89.76617187 -3.9609375 89.07421875 C-0.73987275 77.62399542 -1.34741684 63.78007807 -6.640625 53.109375 C-7.54947651 52.02226809 -8.48552834 50.95704126 -9.453125 49.921875 C-12.84955659 45.74323492 -11.59046008 40.54812162 -11.11279297 35.53857422 C-10.57521044 29.74462921 -10.97132417 24.72429597 -12.640625 19.109375 C-20.81426035 20.76149278 -31.51628713 22.98503713 -37.640625 29.109375 C-39.51865671 29.04420671 -41.39433328 28.90618094 -43.265625 28.734375 C-44.80089844 28.59902344 -44.80089844 28.59902344 -46.3671875 28.4609375 C-48.59368304 28.22181507 -50.81470681 27.92655949 -53.02734375 27.58203125 C-56.97493535 27.06564359 -60.85426443 26.91824134 -64.828125 26.921875 C-65.93861206 26.9209082 -65.93861206 26.9209082 -67.0715332 26.91992188 C-72.51458338 26.97174362 -77.6889221 27.55938192 -83.02734375 28.671875 C-88.50397371 29.58873981 -91.81636111 29.45725635 -96.453125 26.296875 C-102.8514413 22.22696854 -108.91541244 19.51512788 -116.640625 20.109375 C-118.95707479 27.78261494 -119.41992325 35.08300071 -117.890625 42.984375 C-117.640625 46.109375 -117.640625 46.109375 -119.328125 48.484375 C-120.09125 49.350625 -120.854375 50.216875 -121.640625 51.109375 C-128.01633924 63.39590765 -128.83054075 78.05421049 -124.953125 91.359375 C-121.20632577 101.56842377 -115.50946134 109.16266229 -105.765625 114.359375 C-98.41390905 117.7259142 -90.51874703 119.4575107 -82.640625 121.109375 C-83.23875 122.099375 -83.836875 123.089375 -84.453125 124.109375 C-86.83179989 128.26570728 -89.640625 133.24819045 -89.640625 138.109375 C-89.95540946 139.44720893 -90.28650156 140.78141209 -90.640625 142.109375 C-91.960625 141.779375 -93.280625 141.449375 -94.640625 141.109375 C-94.970625 139.789375 -95.300625 138.469375 -95.640625 137.109375 C-96.75847613 139.22722613 -96.75847613 139.22722613 -97.640625 142.109375 C-98.630625 142.439375 -99.620625 142.769375 -100.640625 143.109375 C-101.300625 142.779375 -101.960625 142.449375 -102.640625 142.109375 C-102.640625 141.119375 -102.640625 140.129375 -102.640625 139.109375 C-103.630625 138.779375 -104.620625 138.449375 -105.640625 138.109375 C-105.640625 139.099375 -105.640625 140.089375 -105.640625 141.109375 C-107.290625 140.779375 -108.940625 140.449375 -110.640625 140.109375 C-111.135625 137.634375 -111.135625 137.634375 -111.640625 135.109375 C-111.970625 135.769375 -112.300625 136.429375 -112.640625 137.109375 C-114.290625 136.779375 -115.940625 136.449375 -117.640625 136.109375 C-117.7953125 135.1503125 -117.7953125 135.1503125 -117.953125 134.171875 C-118.18 133.49125 -118.406875 132.810625 -118.640625 132.109375 C-119.630625 131.779375 -120.620625 131.449375 -121.640625 131.109375 C-121.640625 127.109375 -121.640625 127.109375 -120.640625 126.109375 C-122.290625 125.779375 -123.940625 125.449375 -125.640625 125.109375 C-125.310625 123.789375 -124.980625 122.469375 -124.640625 121.109375 C-125.23875 121.315625 -125.836875 121.521875 -126.453125 121.734375 C-128.640625 122.109375 -128.640625 122.109375 -131.640625 120.109375 C-131.640625 119.449375 -131.640625 118.789375 -131.640625 118.109375 C-133.620625 117.779375 -135.600625 117.449375 -137.640625 117.109375 C-136.96 117.769375 -136.279375 118.429375 -135.578125 119.109375 C-134.59406214 120.10455722 -133.61545806 121.10514999 -132.640625 122.109375 C-131.80917969 122.96402344 -131.80917969 122.96402344 -130.9609375 123.8359375 C-127.48743123 127.58732427 -124.9201067 131.24165928 -122.578125 135.796875 C-119.64723755 141.40987431 -117.01297689 144.64870587 -111.0703125 147.22265625 C-106.57087412 148.38595068 -102.38890211 148.32489097 -97.765625 148.234375 C-96.88648437 148.22535156 -96.00734375 148.21632812 -95.1015625 148.20703125 C-92.9477979 148.18362077 -90.79417486 148.1477551 -88.640625 148.109375 C-88.52429987 151.52575453 -88.45333603 154.94162397 -88.390625 158.359375 C-88.35710937 159.32746094 -88.32359375 160.29554688 -88.2890625 161.29296875 C-88.19021495 168.45941619 -88.19021495 168.45941619 -90.4921875 171.78125 C-92.640625 173.109375 -92.640625 173.109375 -95.265625 173.109375 C-120.09918634 165.75128275 -140.31524558 148.67954499 -152.8828125 126.20703125 C-164.64378047 104.13888163 -169.30613829 76.72529673 -162.671875 52.24609375 C-162.3315625 51.21097656 -161.99125 50.17585938 -161.640625 49.109375 C-161.44726562 48.49271973 -161.25390625 47.87606445 -161.0546875 47.24072266 C-155.22611536 28.94098498 -144.81719431 12.10506478 -129.640625 0.109375 C-128.78082031 -0.59832031 -127.92101562 -1.30601563 -127.03515625 -2.03515625 C-90.15812438 -31.24813561 -35.9792533 -30.33544886 0 0 Z M-117.640625 129.109375 C-116.640625 131.109375 -116.640625 131.109375 -116.640625 131.109375 Z M-116.640625 131.109375 C-116.640625 131.769375 -116.640625 132.429375 -116.640625 133.109375 C-115.980625 132.779375 -115.320625 132.449375 -114.640625 132.109375 C-115.300625 131.779375 -115.960625 131.449375 -116.640625 131.109375 Z " fill="#3b2f2f" transform="translate(164.640625,22.890625)"/>
<path d="" fill="#3b2f2f" transform="translate(0,0)"/>
<path d="" fill="#3b2f2f" transform="translate(0,0)"/>
<path d="" fill="#3b2f2f" transform="translate(0,0)"/>
<path d="" fill="#3b2f2f" transform="translate(0,0)"/>
<path d="" fill="#3b2f2f" transform="translate(0,0)"/>
</svg>
