<?xml version="1.0" encoding="UTF-8"?>
<svg version="1.1" xmlns="http://www.w3.org/2000/svg" width="500" height="500">
<path d="M0 0 C1.03943075 -0.00352835 1.03943075 -0.00352835 2.0998601 -0.00712797 C4.433164 -0.01381069 6.76641211 -0.01335997 9.09972477 -0.01294994 C10.785081 -0.01624904 12.47043644 -0.0199747 14.15579087 -0.02409142 C18.79630194 -0.03411465 23.43680009 -0.03782875 28.07732046 -0.04048073 C33.07891444 -0.0443829 38.08049817 -0.0539614 43.08208561 -0.0626936 C55.16660714 -0.08246191 67.25112951 -0.09252532 79.33566317 -0.10142139 C85.02675293 -0.10580425 90.71784176 -0.11117112 96.40893078 -0.11641026 C115.32863611 -0.13342396 134.24834086 -0.14791756 153.16805267 -0.155159 C158.07855003 -0.15706889 162.98904738 -0.15898922 167.89954472 -0.16094494 C169.73026474 -0.16167055 169.73026474 -0.16167055 171.597969 -0.16241082 C191.36359926 -0.17070895 211.12916895 -0.19604159 230.89477276 -0.22852562 C251.18885609 -0.26160612 271.48290865 -0.27960871 291.77701908 -0.28280324 C303.17086482 -0.28496756 314.56462228 -0.29370478 325.95844173 -0.31926441 C335.66337357 -0.34098503 345.36819569 -0.34901514 355.07314908 -0.33929763 C360.02259944 -0.33475673 364.97182348 -0.33662703 369.92124271 -0.35605907 C374.45851244 -0.37371862 378.99539122 -0.37267039 383.53266526 -0.35716178 C385.16803339 -0.35478993 386.80342879 -0.35908718 388.43875533 -0.37099043 C406.45668503 -0.49394243 420.52855043 4.19994749 433.81678104 16.65375233 C440.45105109 23.73402373 444.36167764 31.91464168 447.14099979 41.13422108 C447.31821684 41.70246367 447.49543388 42.27070626 447.67802113 42.85616833 C448.3026551 45.92963421 448.27068479 48.85621698 448.27522087 51.99322128 C448.2775731 52.68617512 448.27992533 53.37912895 448.28234884 54.09308138 C448.28903156 56.42638528 448.28858084 58.75963339 448.28817081 61.09294605 C448.29146991 62.77830228 448.29519557 64.46365772 448.29931229 66.14901215 C448.30933552 70.78952323 448.31304962 75.43002137 448.3157016 80.07054174 C448.31960377 85.07213572 448.32918227 90.07371945 448.33791447 95.07530689 C448.35768278 107.15982842 448.36774619 119.24435079 448.37664226 131.32888445 C448.38102512 137.01997421 448.38639199 142.71106304 448.39163113 148.40215206 C448.40864483 167.32185739 448.42313844 186.24156215 448.43037987 205.16127396 C448.43228976 210.07177131 448.43421009 214.98226866 448.43616581 219.892766 C448.43664955 221.11324601 448.43713329 222.33372603 448.43763169 223.59119029 C448.44592982 243.35682054 448.47126246 263.12239023 448.50374649 282.88799404 C448.536827 303.18207737 448.55482958 323.47612994 448.55802411 343.77024037 C448.56018843 355.16408611 448.56892565 366.55784356 448.59448528 377.95166302 C448.6162059 387.65659485 448.62423601 397.36141697 448.6145185 407.06637036 C448.6099776 412.01582072 448.6118479 416.96504476 448.63127995 421.914464 C448.64893949 426.45173372 448.64789126 430.9886125 448.63238265 435.52588654 C448.6300108 437.16125467 448.63430805 438.79665008 448.6462113 440.43197661 C448.7691633 458.44990631 444.07527338 472.52177171 431.62146854 485.81000233 C424.54119715 492.44427238 416.36057919 496.35489892 407.14099979 499.13422108 C406.5727572 499.31143812 406.00451461 499.48865516 405.41905254 499.67124242 C402.34558666 500.29587638 399.41900389 500.26390607 396.28199959 500.26844215 C395.58904575 500.27079438 394.89609192 500.27314661 394.18213949 500.27557012 C391.84883559 500.28225284 389.51558748 500.28180212 387.18227482 500.2813921 C385.49691859 500.28469119 383.81156315 500.28841685 382.12620872 500.29253358 C377.48569764 500.3025568 372.8451995 500.3062709 368.20467913 500.30892289 C363.20308515 500.31282506 358.20150142 500.32240355 353.19991398 500.33113575 C341.11539245 500.35090406 329.03087008 500.36096747 316.94633642 500.36986354 C311.25524666 500.3742464 305.56415783 500.37961327 299.87306881 500.38485241 C280.95336348 500.40186611 262.03365872 500.41635972 243.11394691 500.42360115 C238.20344956 500.42551105 233.29295221 500.42743138 228.38245487 500.42938709 C226.55173485 500.4301127 226.55173485 500.4301127 224.68403058 500.43085297 C204.91840033 500.4391511 185.15283064 500.46448374 165.38722683 500.49696777 C145.0931435 500.53004828 124.79909094 500.54805087 104.5049805 500.55124539 C93.11113477 500.55340971 81.71737731 500.56214693 70.32355785 500.58770657 C60.61862602 500.60942718 50.9138039 500.6174573 41.20885051 500.60773978 C36.25940015 500.60319888 31.31017611 500.60506918 26.36075687 500.62450123 C21.82348715 500.64216078 17.28660837 500.64111254 12.74933433 500.62560394 C11.1139662 500.62323209 9.47857079 500.62752934 7.84324426 500.63943259 C-10.17468544 500.76238458 -24.24655084 496.06849466 -37.53478146 483.61468983 C-44.16905151 476.53441843 -48.07967805 468.35380048 -50.85900021 459.13422108 C-51.03621725 458.56597848 -51.21343429 457.99773589 -51.39602154 457.41227382 C-52.02065551 454.33880794 -51.9886852 451.41222517 -51.99322128 448.27522087 C-51.99557351 447.58226704 -51.99792574 446.8893132 -52.00034925 446.17536077 C-52.00703197 443.84205687 -52.00658125 441.50880876 -52.00617123 439.1754961 C-52.00947032 437.49013987 -52.01319598 435.80478443 -52.01731271 434.11943001 C-52.02733593 429.47891893 -52.03105003 424.83842078 -52.03370202 420.19790041 C-52.03760419 415.19630643 -52.04718268 410.1947227 -52.05591488 405.19313526 C-52.07568319 393.10861373 -52.0857466 381.02409136 -52.09464267 368.9395577 C-52.09902553 363.24846794 -52.1043924 357.55737912 -52.10963154 351.86629009 C-52.12664524 332.94658476 -52.14113885 314.02688001 -52.14838028 295.1071682 C-52.15029017 290.19667084 -52.15221051 285.28617349 -52.15416622 280.37567616 C-52.15464996 279.15519614 -52.1551337 277.93471613 -52.1556321 276.67725187 C-52.16393023 256.91162161 -52.18926287 237.14605192 -52.2217469 217.38044811 C-52.25482741 197.08636478 -52.27283 176.79231222 -52.27602452 156.49820179 C-52.27818884 145.10435605 -52.28692606 133.71059859 -52.31248569 122.31677914 C-52.33420631 112.6118473 -52.34223643 102.90702518 -52.33251891 93.20207179 C-52.32797801 88.25262144 -52.32984831 83.30339739 -52.34928036 78.35397816 C-52.36693991 73.81670843 -52.36589167 69.27982965 -52.35038307 64.74255561 C-52.34801121 63.10718748 -52.35230847 61.47179208 -52.36421172 59.83646554 C-52.48716371 41.81853584 -47.79327379 27.74667045 -35.33946896 14.45843983 C-28.25919756 7.82416978 -20.0785796 3.91354323 -10.85900021 1.13422108 C-10.00663632 0.86839551 -10.00663632 0.86839551 -9.13705295 0.59719974 C-6.06358707 -0.02743423 -3.1370043 0.00453608 0 0 Z M55.83631229 70.10297108 C46.81917627 70.5519571 35.66062318 77.25010594 29.72693729 83.79828358 C21.16473596 95.26497724 16.94049095 105.35625593 18.43006229 119.97015858 C18.87382155 122.41459514 19.44386547 124.75060611 20.14099979 127.13422108 C20.32533573 127.81871326 20.50967167 128.50320545 20.69959354 129.20843983 C23.79794111 139.0038368 31.90875297 147.60635764 40.74256229 152.60687733 C52.75574807 158.41043045 63.45833178 159.28000658 76.26599979 155.50922108 C83.85503047 152.80870886 89.72902464 148.02940829 95.14099979 142.13422108 C95.14099979 141.47422108 95.14099979 140.81422108 95.14099979 140.13422108 C95.80099979 140.13422108 96.46099979 140.13422108 97.14099979 140.13422108 C97.93523841 138.57302686 98.72627103 137.01020144 99.51599979 135.44672108 C100.17728886 134.1415453 100.17728886 134.1415453 100.85193729 132.81000233 C105.65726528 122.83530636 106.77860209 110.74389444 103.14099979 100.13422108 C99.81892557 91.6270175 95.35481262 84.84756084 88.14099979 79.13422108 C87.48099979 79.13422108 86.82099979 79.13422108 86.14099979 79.13422108 C86.14099979 78.47422108 86.14099979 77.81422108 86.14099979 77.13422108 C75.76559356 71.41287565 67.61740616 70.26271472 55.83631229 70.10297108 Z M238.14099979 201.13422108 C237.34693729 201.67820545 236.55287479 202.22218983 235.73474979 202.78265858 C235.20881229 203.2286742 234.68287479 203.67468983 234.14099979 204.13422108 C234.14099979 204.79422108 234.14099979 205.45422108 234.14099979 206.13422108 C233.54158573 206.39847889 232.94217167 206.6627367 232.32459354 206.93500233 C230.04853301 208.18500337 228.84616956 209.3332261 227.20349979 211.32172108 C226.74072636 211.87215076 226.27795292 212.42258045 225.80115604 212.98968983 C223.49279508 215.97154905 221.33281618 219.06567814 219.14099979 222.13422108 C218.81099979 211.90422108 218.48099979 201.67422108 218.14099979 191.13422108 C195.04099979 191.13422108 171.94099979 191.13422108 148.14099979 191.13422108 C148.14099979 270.00422108 148.14099979 348.87422108 148.14099979 430.13422108 C171.24099979 430.13422108 194.34099979 430.13422108 218.14099979 430.13422108 C218.16226933 415.14500233 218.16226933 415.14500233 218.18396854 399.85297108 C218.2040393 393.50008099 218.22536715 387.14723574 218.25232792 380.79437733 C218.29483432 370.72387971 218.33239367 360.65354781 218.33655643 350.58295155 C218.33961282 343.24626199 218.36032616 335.90986168 218.40152436 328.57328367 C218.42270558 324.69491432 218.43553273 320.81695458 218.42715359 316.93852711 C218.36167858 280.53325139 218.36167858 280.53325139 229.14099979 265.13422108 C229.14099979 264.47422108 229.14099979 263.81422108 229.14099979 263.13422108 C229.80099979 263.13422108 230.46099979 263.13422108 231.14099979 263.13422108 C231.14099979 262.47422108 231.14099979 261.81422108 231.14099979 261.13422108 C231.80099979 261.13422108 232.46099979 261.13422108 233.14099979 261.13422108 C233.14099979 260.47422108 233.14099979 259.81422108 233.14099979 259.13422108 C233.80099979 259.13422108 234.46099979 259.13422108 235.14099979 259.13422108 C235.14099979 258.47422108 235.14099979 257.81422108 235.14099979 257.13422108 C236.00724979 256.86609608 236.87349979 256.59797108 237.76599979 256.32172108 C241.15036454 255.21503707 241.15036454 255.21503707 244.20349979 253.57172108 C250.31172096 250.58259157 256.66028819 250.88555208 263.32849979 250.82172108 C264.31914433 250.79271717 265.30978886 250.76371326 266.33045292 250.73383045 C273.47013694 250.67296757 278.7152831 252.12296881 285.14099979 255.13422108 C286.80409472 255.80974864 288.46988492 256.47878436 290.14099979 257.13422108 C290.14099979 257.79422108 290.14099979 258.45422108 290.14099979 259.13422108 C290.80099979 259.13422108 291.46099979 259.13422108 292.14099979 259.13422108 C292.14099979 259.79422108 292.14099979 260.45422108 292.14099979 261.13422108 C292.80099979 261.13422108 293.46099979 261.13422108 294.14099979 261.13422108 C294.51224979 262.15515858 294.51224979 262.15515858 294.89099979 263.19672108 C296.11543292 266.25790938 296.11543292 266.25790938 298.08088017 269.38533497 C306.67006637 284.37429232 304.75300198 303.43557874 304.74850464 320.12799096 C304.75167007 324.00639776 304.77736225 327.8846601 304.80048466 331.76299 C304.84077391 339.07936096 304.86132101 346.39564343 304.87445855 353.71210808 C304.89341633 363.61846252 304.94351384 373.524659 304.99170208 383.4309063 C305.06662333 398.99866953 305.1004951 414.56624206 305.14099979 430.13422108 C329.23099979 430.13422108 353.32099979 430.13422108 378.14099979 430.13422108 C378.17015809 402.2406678 378.17015809 402.2406678 378.18982792 374.3471117 C378.19574999 362.96405045 378.20269303 351.58099663 378.21643925 340.19794178 C378.22644793 331.90589058 378.23286786 323.61384544 378.23508829 315.32178837 C378.23638494 310.93662583 378.23940397 306.55148061 378.24672985 302.16632366 C378.25358794 298.02709802 378.25559714 293.8878966 378.25410748 289.74866581 C378.25437945 288.24077376 378.2563259 286.73288079 378.26020527 285.22499371 C378.39987057 266.14922373 378.39987057 266.14922373 375.39099979 247.38422108 C375.12875614 246.31856922 375.12875614 246.31856922 374.86121464 245.23138905 C373.2970112 239.17919891 371.06938168 233.66185836 368.14099979 228.13422108 C367.64213261 227.17644764 367.14326542 226.2186742 366.62928104 225.23187733 C362.753693 217.95220054 362.753693 217.95220054 358.14099979 211.13422108 C357.48099979 211.13422108 356.82099979 211.13422108 356.14099979 211.13422108 C355.73881229 210.23703358 355.73881229 210.23703358 355.32849979 209.32172108 C354.14182573 207.13574254 353.04500867 205.72089514 351.14099979 204.13422108 C350.48099979 204.13422108 349.82099979 204.13422108 349.14099979 204.13422108 C349.14099979 203.47422108 349.14099979 202.81422108 349.14099979 202.13422108 C316.96065223 175.00070711 271.12876577 178.43387697 238.14099979 201.13422108 Z M25.14099979 191.13422108 C25.14099979 270.00422108 25.14099979 348.87422108 25.14099979 430.13422108 C49.56099979 430.13422108 73.98099979 430.13422108 99.14099979 430.13422108 C99.14099979 351.26422108 99.14099979 272.39422108 99.14099979 191.13422108 C74.72099979 191.13422108 50.30099979 191.13422108 25.14099979 191.13422108 Z " fill="#fffff8" transform="translate(51.85900020599365,-0.13422107696533203)"/>
<path d="M0 0 C4.2710989 0.1386402 8.54179892 0.28713901 12.8125 0.4375 C14.02744141 0.47681641 15.24238281 0.51613281 16.49414062 0.55664062 C17.65751953 0.59853516 18.82089844 0.64042969 20.01953125 0.68359375 C21.09307861 0.72025146 22.16662598 0.75690918 23.27270508 0.79467773 C26 1 26 1 29 2 C31.73470417 2.26669716 34.46910508 2.4435922 37.2109375 2.62109375 C40.08506945 3.01155705 42.36331457 3.81588854 45 5 C45 5.66 45 6.32 45 7 C41.62056908 6.52815493 38.2497774 6.04293539 34.88671875 5.46484375 C14.94331174 2.17746897 -2.89914691 4.6650437 -22 11 C-22.33 10.34 -22.66 9.68 -23 9 C-22.01 9 -21.02 9 -20 9 C-19.67 7.68 -19.34 6.36 -19 5 C-18.67 5.66 -18.34 6.32 -18 7 C-16.35 7 -14.7 7 -13 7 C-13 6.34 -13 5.68 -13 5 C-8.67435795 3.41744803 -4.571279 2.54855348 0 2 C0 1.34 0 0.68 0 0 Z " fill="#fffff8" transform="translate(328,180)"/>
<path d="M0 0 C1.04091797 -0.01224609 2.08183594 -0.02449219 3.15429688 -0.03710938 C4.15654297 -0.03904297 5.15878906 -0.04097656 6.19140625 -0.04296875 C7.55761108 -0.04913208 7.55761108 -0.04913208 8.95141602 -0.05541992 C11.56252726 0.19971665 13.19371221 0.86494615 15.4375 2.1875 C14.85371582 2.17702637 14.26993164 2.16655273 13.66845703 2.15576172 C10.96651699 2.11361892 8.26464649 2.08799195 5.5625 2.0625 C4.6446875 2.04574219 3.726875 2.02898437 2.78125 2.01171875 C-5.50910578 1.95333596 -13.55831014 2.37211947 -20.5625 7.1875 C-21.2225 7.1875 -21.8825 7.1875 -22.5625 7.1875 C-22.8925 8.1775 -23.2225 9.1675 -23.5625 10.1875 C-25.84765625 11.57421875 -25.84765625 11.57421875 -28.625 12.875 C-30.00365234 13.53048828 -30.00365234 13.53048828 -31.41015625 14.19921875 C-32.12042969 14.52535156 -32.83070313 14.85148437 -33.5625 15.1875 C-33.8925 14.5275 -34.2225 13.8675 -34.5625 13.1875 C-33.9025 13.1875 -33.2425 13.1875 -32.5625 13.1875 C-32.5625 12.5275 -32.5625 11.8675 -32.5625 11.1875 C-31.9025 11.1875 -31.2425 11.1875 -30.5625 11.1875 C-30.5625 10.5275 -30.5625 9.8675 -30.5625 9.1875 C-29.9025 9.1875 -29.2425 9.1875 -28.5625 9.1875 C-28.5625 8.5275 -28.5625 7.8675 -28.5625 7.1875 C-26.67057525 6.20080241 -24.77378022 5.2234398 -22.875 4.25 C-21.29138672 3.43208984 -21.29138672 3.43208984 -19.67578125 2.59765625 C-13.27055241 -0.30358291 -6.91002744 0.00429461 0 0 Z " fill="#fffff8" transform="translate(315.5625,249.8125)"/>
<path d="M0 0 C1.15242188 0.01804688 2.30484375 0.03609375 3.4921875 0.0546875 C4.36101562 0.07789063 5.22984375 0.10109375 6.125 0.125 C6.125 0.455 6.125 0.785 6.125 1.125 C4.94164062 1.37894531 3.75828125 1.63289062 2.5390625 1.89453125 C-5.69543028 3.68108012 -13.86663812 5.46896038 -21.875 8.125 C-22.205 7.465 -22.535 6.805 -22.875 6.125 C-21.885 6.125 -20.895 6.125 -19.875 6.125 C-19.545 4.805 -19.215 3.485 -18.875 2.125 C-18.545 2.785 -18.215 3.445 -17.875 4.125 C-16.225 4.125 -14.575 4.125 -12.875 4.125 C-12.875 3.465 -12.875 2.805 -12.875 2.125 C-8.41165816 0.40206865 -4.77298769 -0.09740791 0 0 Z " fill="#fffff8" transform="translate(327.875,182.875)"/>
<path d="M0 0 C0.66 0 1.32 0 2 0 C2 1.32 2 2.64 2 4 C2.66 4 3.32 4 4 4 C5.49821059 7.37097383 6 9.20442119 6 13 C6.66 13.33 7.32 13.66 8 14 C8 18.29 8 22.58 8 27 C5.7518885 23.62783275 5.31490885 21.21183642 4.5625 17.25 C3.52024934 12.09724037 2.21122349 7.73833606 0 3 C0 2.01 0 1.02 0 0 Z " fill="#fffff8" transform="translate(421,229)"/>
<path d="M0 0 C0.33 0 0.66 0 1 0 C1.33 3.96 1.66 7.92 2 12 C2.33 11.67 2.66 11.34 3 11 C4.66617115 10.95936168 6.33388095 10.957279 8 11 C7.04737966 12.48285242 6.08771595 13.96118201 5.125 15.4375 C4.59132813 16.26121094 4.05765625 17.08492187 3.5078125 17.93359375 C2 20 2 20 0 21 C0 14.07 0 7.14 0 0 Z " fill="#fffff8" transform="translate(270,202)"/>
<path d="M0 0 C1.21623047 0.23396484 1.21623047 0.23396484 2.45703125 0.47265625 C12.08652938 2.16538526 20.42930847 1.81067137 30 0 C27.59200234 2.63733077 25.77884441 3.84895956 22.10229492 4.16113281 C19.79721213 4.20675176 17.49299611 4.23525662 15.1875 4.25 C14.39279297 4.270625 13.59808594 4.29125 12.77929688 4.3125 C7.74173225 4.34583376 4.41340405 3.70063372 0 1 C0 0.67 0 0.34 0 0 Z " fill="#fffff8" transform="translate(98,155)"/>
<path d="M0 0 C0.23046875 2.2734375 0.23046875 2.2734375 0 5 C-1.57421875 6.9140625 -1.57421875 6.9140625 -3.6875 8.625 C-4.41582031 9.21667969 -5.14414062 9.80835938 -5.89453125 10.41796875 C-11.99259259 15 -11.99259259 15 -15 15 C-15 14.34 -15 13.68 -15 13 C-12 11 -12 11 -9 11 C-8.67 10.01 -8.34 9.02 -8 8 C-7.01 8 -6.02 8 -5 8 C-5.12375 6.8553125 -5.12375 6.8553125 -5.25 5.6875 C-5 3 -5 3 -3.0625 1.1875 C-1 0 -1 0 0 0 Z " fill="#fffff8" transform="translate(485,479)"/>
<path d="M0 0 C2.56278699 -0.05420701 5.12441483 -0.09377007 7.6875 -0.125 C8.40873047 -0.14175781 9.12996094 -0.15851563 9.87304688 -0.17578125 C14.04876781 -0.21391569 17.2494138 0.1210081 21 2 C21 2.66 21 3.32 21 4 C18.66666667 3.66666667 16.33333333 3.33333333 14 3 C12.76378906 2.82339844 11.52757812 2.64679688 10.25390625 2.46484375 C6.8359375 1.9765625 3.41796875 1.48828125 0 1 C0 0.67 0 0.34 0 0 Z " fill="#fffff8" transform="translate(352,183)"/>
<path d="M0 0 C1.22589844 0.01353516 1.22589844 0.01353516 2.4765625 0.02734375 C3.41628906 0.04474609 3.41628906 0.04474609 4.375 0.0625 C-5.33928571 8.0625 -5.33928571 8.0625 -8.625 8.0625 C-8.625 7.4025 -8.625 6.7425 -8.625 6.0625 C-7.965 6.0625 -7.305 6.0625 -6.625 6.0625 C-6.625 4.4125 -6.625 2.7625 -6.625 1.0625 C-4.21954362 -0.14022819 -2.67503047 -0.03821472 0 0 Z " fill="#fffff8" transform="translate(92.625,72.9375)"/>
<path d="M0 0 C3.72007056 4.11864955 8 10.20736961 8 16 C5 15 5 15 3 12 C2.41987749 10.70403824 1.87941109 9.38976353 1.375 8.0625 C0.98441406 7.05896484 0.98441406 7.05896484 0.5859375 6.03515625 C0 4 0 4 0 0 Z " fill="#fffff8" transform="translate(490,23)"/>
<path d="M0 0 C0.33 0.66 0.66 1.32 1 2 C2.32 2.33 3.64 2.66 5 3 C2.03 7.95 2.03 7.95 -1 13 C-2.16619714 8.33521145 -1.76990451 5.6964175 -1 1 C-0.67 0.67 -0.34 0.34 0 0 Z " fill="#fffff8" transform="translate(75,84)"/>
<path d="M0 0 C-1.13952385 3.41857155 -2.67586275 4.53800289 -5.44140625 6.7265625 C-7.1825003 8.09981435 -7.1825003 8.09981435 -9.25 10.3125 C-11 12 -11 12 -13 12 C-11.50198648 8.38522825 -9.42462583 6.31379537 -6.5 3.75 C-5.7059375 3.04359375 -4.911875 2.3371875 -4.09375 1.609375 C-2 0 -2 0 0 0 Z " fill="#fffff8" transform="translate(25,9)"/>
<path d="M0 0 C3.30979968 2.81332973 5.1048141 6.141943 7 10 C6.75 12.4375 6.75 12.4375 6 14 C5.71125 13.360625 5.4225 12.72125 5.125 12.0625 C4.17176549 9.84793921 4.17176549 9.84793921 2 9 C0.37265234 5.65489648 0 3.81164166 0 0 Z " fill="#fffff8" transform="translate(346,263)"/>
<path d="M0 0 C2.31 0 4.62 0 7 0 C7 1.65 7 3.3 7 5 C7.66 5.33 8.32 5.66 9 6 C9 6.66 9 7.32 9 8 C8.34 8 7.68 8 7 8 C5.71569138 6.52304509 4.43419292 5.04193862 3.21875 3.5078125 C1.93215329 1.86186905 1.93215329 1.86186905 0 0 Z " fill="#fffff8" transform="translate(401,203)"/>
<path d="M0 0 C-0.99 1.485 -0.99 1.485 -2 3 C-2.66 3 -3.32 3 -4 3 C-4 3.66 -4 4.32 -4 5 C-5.98 5.99 -5.98 5.99 -8 7 C-7.625 4.0625 -7.625 4.0625 -7 1 C-4.53721199 -0.231394 -2.7204945 -0.07159196 0 0 Z " fill="#fffff8" transform="translate(290,201)"/>
<path d="M0 0 C1.72880982 -0.05449838 3.45812712 -0.09301688 5.1875 -0.125 C6.15042969 -0.14820312 7.11335938 -0.17140625 8.10546875 -0.1953125 C11.1852108 0.01249735 13.2829741 0.54255449 16 2 C16.33 2.99 16.66 3.98 17 5 C16.443125 4.79503906 15.88625 4.59007813 15.3125 4.37890625 C10.16382446 2.56121505 5.43723984 1.49429453 0 1 C0 0.67 0 0.34 0 0 Z " fill="#fffff8" transform="translate(117,70)"/>
<path d="M0 0 C0.33 0 0.66 0 1 0 C1.36717663 7.4659249 1.36717663 7.4659249 -0.375 10 C-2 11 -2 11 -4 11 C-3.71125 10.29875 -3.4225 9.5975 -3.125 8.875 C-1.97866412 5.94547497 -0.97374346 2.99078347 0 0 Z " fill="#fffff8" transform="translate(154,127)"/>
<path d="M0 0 C2.3125 0.1875 2.3125 0.1875 5 1 C6.8125 3.5625 6.8125 3.5625 8 6 C5 6 5 6 3.61328125 4.6875 C2.40885417 3.125 1.20442708 1.5625 0 0 Z " fill="#fffff8" transform="translate(142,81)"/>
<path d="M0 0 C0.78375 0.04125 1.5675 0.0825 2.375 0.125 C0.395 3.095 0.395 3.095 -1.625 6.125 C-1.955 5.135 -2.285 4.145 -2.625 3.125 C-3.285 2.795 -3.945 2.465 -4.625 2.125 C-2.625 0.125 -2.625 0.125 0 0 Z " fill="#fffff8" transform="translate(275.625,212.875)"/>
<path d="M0 0 C0.33 0.66 0.66 1.32 1 2 C1.99 2 2.98 2 4 2 C4 2.66 4 3.32 4 4 C1.69 4.66 -0.62 5.32 -3 6 C-3.33 5.34 -3.66 4.68 -4 4 C-3.01 4 -2.02 4 -1 4 C-0.67 2.68 -0.34 1.36 0 0 Z " fill="#fffff8" transform="translate(309,185)"/>
<path d="M0 0 C0.33 0 0.66 0 1 0 C1.25 2.3125 1.25 2.3125 1 5 C-1 6.8125 -1 6.8125 -3 8 C-3 3.75589918 -2.68429577 3.00641127 0 0 Z " fill="#fffff8" transform="translate(11,21)"/>
<path d="M0 0 C1.98 0 3.96 0 6 0 C5.67 2.31 5.34 4.62 5 7 C2.47411298 4.63707344 1.11179163 3.33537489 0 0 Z " fill="#fffff8" transform="translate(8,474)"/>
<path d="M0 0 C-4.1795645 2.78637633 -6.14668677 1.79562512 -11 1 C-11 0.67 -11 0.34 -11 0 C-7.01803543 -1.05404945 -4.01804691 -0.84098656 0 0 Z " fill="#fffff8" transform="translate(310,251)"/>
<path d="M0 0 C1.16959987 0.97566112 2.33561177 1.955625 3.5 2.9375 C4.1496875 3.48277344 4.799375 4.02804688 5.46875 4.58984375 C5.9740625 5.05519531 6.479375 5.52054688 7 6 C7 6.33 7 6.66 7 7 C5.35 7 3.7 7 2 7 C1.34 4.69 0.68 2.38 0 0 Z " fill="#fffff8" transform="translate(79,141)"/>
<path d="M0 0 C0.66 0 1.32 0 2 0 C3.32229189 2.64458379 3.09677194 4.67761301 3.0625 7.625 C3.05347656 8.62789062 3.04445312 9.63078125 3.03515625 10.6640625 C3.02355469 11.43492188 3.01195312 12.20578125 3 13 C2.67 13 2.34 13 2 13 C1.34 8.71 0.68 4.42 0 0 Z " fill="#fffff8" transform="translate(154,97)"/>
<path d="M0 0 C3.36720387 1.39332574 4.9859524 2.9789286 7 6 C6.01 6 5.02 6 4 6 C3.67 5.34 3.34 4.68 3 4 C0.47266765 3.34444881 0.47266765 3.34444881 -2 3 C-1.34 2.01 -0.68 1.02 0 0 Z " fill="#fffff8" transform="translate(480,13)"/>
<path d="M0 0 C3.93673644 1.31224548 6.22719294 2.91910327 9 6 C7.35 6 5.7 6 4 6 C4 5.34 4 4.68 4 4 C2.68 3.34 1.36 2.68 0 2 C0 1.34 0 0.68 0 0 Z " fill="#fffff8" transform="translate(470,6)"/>
<path d="M0 0 C-0.33 0.99 -0.66 1.98 -1 3 C-3.31 3.33 -5.62 3.66 -8 4 C-4.5 0 -4.5 0 0 0 Z " fill="#fffff8" transform="translate(135,153)"/>
<path d="M0 0 C0.66 0 1.32 0 2 0 C0.74874616 3.75376152 -0.5652404 4.24073289 -4 6 C-4.66 6 -5.32 6 -6 6 C-6 5.34 -6 4.68 -6 4 C-3 2 -3 2 0 2 C0 1.34 0 0.68 0 0 Z " fill="#fffff8" transform="translate(476,488)"/>
<path d="M0 0 C0.99 0.33 1.98 0.66 3 1 C1.68 3.31 0.36 5.62 -1 8 C-1.93065133 5.39417629 -2.14917407 4.35801776 -1.0625 1.75 C-0.711875 1.1725 -0.36125 0.595 0 0 Z " fill="#fffff8" transform="translate(489,473)"/>
<path d="M0 0 C1.74627478 2.61941217 2.38722388 4.03824877 3 7 C1.68 7.33 0.36 7.66 -1 8 C-0.67 5.36 -0.34 2.72 0 0 Z " fill="#fffff8" transform="translate(272,281)"/>
</svg>
