<?xml version="1.0" encoding="UTF-8"?>
<svg version="1.1" xmlns="http://www.w3.org/2000/svg" width="70" height="70">
<path d="M0 0 C1.07314453 0.61681641 1.07314453 0.61681641 2.16796875 1.24609375 C3.22564453 1.84744141 3.22564453 1.84744141 4.3046875 2.4609375 C11.8424548 7.41432744 16.87378575 15.60790235 19.16796875 24.24609375 C20.32050663 35.62588878 19.39680901 45.49389057 12.18359375 54.80859375 C6.05093296 61.41968907 -2.0257369 66.77513129 -11.203125 67.51953125 C-22.30871166 67.91399949 -31.1612016 66.14717582 -40.20703125 59.18359375 C-46.03209425 53.67471371 -50.51558328 44.81643251 -51.0703125 36.8046875 C-51.37990656 25.51344832 -50.12264064 17.80260064 -42.58203125 8.93359375 C-31.52587428 -2.63089228 -14.97259349 -7.24803939 0 0 Z M-38.83203125 12.24609375 C-39.53328125 13.00921875 -40.23453125 13.77234375 -40.95703125 14.55859375 C-46.71550556 22.81240693 -46.99295122 31.80621952 -45.46875 41.57421875 C-43.39351523 48.51990247 -37.51855813 54.82024445 -31.5703125 58.734375 C-23.47586736 62.8489266 -14.71121317 63.73909653 -5.86328125 61.4921875 C2.73361671 58.19066795 7.74065792 53.26978317 12.16796875 45.24609375 C15.26841439 37.54227458 15.76096519 28.15826308 12.60546875 20.37109375 C8.44259726 12.5127609 1.96792242 5.5423744 -6.625 2.640625 C-19.14466325 0.4025967 -30.32296544 2.23542809 -38.83203125 12.24609375 Z " fill="#3b2f2f" transform="translate(50.83203125,2.75390625)"/>
<path d="M0 0 C2.92950124 1.27274211 3.78982042 2.99248334 5.3984375 5.71875 C6.19701172 7.02779297 6.19701172 7.02779297 7.01171875 8.36328125 C8.0859375 10.90625 8.0859375 10.90625 7.9453125 13.15234375 C7.0859375 14.90625 7.0859375 14.90625 4.0234375 16.15625 C3.0540625 16.40375 2.0846875 16.65125 1.0859375 16.90625 C-0.39553964 21.21600168 0.54826861 23.96562853 2.1015625 28.0390625 C3.19821993 30.11923016 4.26703545 31.41805741 6.0859375 32.90625 C9.19432771 33.6331726 9.19432771 33.6331726 12.0859375 33.90625 C12.4159375 32.91625 12.7459375 31.92625 13.0859375 30.90625 C15.6484375 29.71875 15.6484375 29.71875 18.0859375 28.90625 C18.42367187 29.44894531 18.76140625 29.99164063 19.109375 30.55078125 C19.55539063 31.26621094 20.00140625 31.98164062 20.4609375 32.71875 C21.12222656 33.78029297 21.12222656 33.78029297 21.796875 34.86328125 C22.86782226 36.56057039 23.97269989 38.23639358 25.0859375 39.90625 C25.0859375 41.22625 25.0859375 42.54625 25.0859375 43.90625 C14.96483023 48.94431228 14.96483023 48.94431228 10.0859375 47.90625 C0.7566396 43.34127304 -5.72224262 32.55811819 -9.4765625 23.21875 C-11.06727266 18.18150117 -12.05859639 13.13980241 -10.9140625 7.90625 C-8.6640625 5.53125 -8.6640625 5.53125 -5.9140625 3.90625 C-5.2334375 3.143125 -4.5528125 2.38 -3.8515625 1.59375 C-1.9140625 -0.09375 -1.9140625 -0.09375 0 0 Z " fill="#3b2f2f" transform="translate(27.9140625,11.09375)"/>
<path d="M0 0 C4 0 4 0 6 1 C2.30211973 11.98214693 -2.82417504 19.54625251 -13.25 25 C-16.47643633 26.51832298 -19.48515168 27.40172795 -23 28 C-23.33 27.34 -23.66 26.68 -24 26 C-23.34 26 -22.68 26 -22 26 C-22 24.68 -22 23.36 -22 22 C-21.31292969 21.74605469 -20.62585937 21.49210937 -19.91796875 21.23046875 C-19.01691406 20.88628906 -18.11585937 20.54210937 -17.1875 20.1875 C-16.29417969 19.85105469 -15.40085937 19.51460937 -14.48046875 19.16796875 C-12.06069934 18.02858126 -10.81582974 16.90307681 -9 15 C-8.34 15 -7.68 15 -7 15 C-6.71253906 14.42378906 -6.42507812 13.84757812 -6.12890625 13.25390625 C-5.41176327 11.82210175 -4.69083993 10.39217964 -3.96484375 8.96484375 C-3.62582031 8.29582031 -3.28679688 7.62679687 -2.9375 6.9375 C-2.59589844 6.26589844 -2.25429688 5.59429687 -1.90234375 4.90234375 C-0.88509619 2.85671686 -0.88509619 2.85671686 0 0 Z " fill="#3b2f2f" transform="translate(64,42)"/>
<path d="M0 0 C0.66 1.65 1.32 3.3 2 5 C2.99 4.01 3.98 3.02 5 2 C6.98 2.66 8.96 3.32 11 4 C11 5.32 11 6.64 11 8 C1.13157895 12.9122807 1.13157895 12.9122807 -4 12 C-7.375 10 -7.375 10 -10 8 C-8.33333333 6.33333333 -6.66666667 4.66666667 -5 3 C-4.443125 2.401875 -3.88625 1.80375 -3.3125 1.1875 C-2 0 -2 0 0 0 Z " fill="#3b2f2f" transform="translate(42,47)"/>
<path d="M0 0 C2.7437445 1.25844974 3.38434 2.81008722 4.734375 5.47265625 C5.16234375 6.29894531 5.5903125 7.12523437 6.03125 7.9765625 C6.34578125 8.61464844 6.6603125 9.25273437 6.984375 9.91015625 C5.664375 10.90015625 4.344375 11.89015625 2.984375 12.91015625 C0.51637453 11.7584227 -1.06346065 10.8623206 -3.015625 8.91015625 C-3.5725 8.45640625 -4.129375 8.00265625 -4.703125 7.53515625 C-6.015625 5.91015625 -6.015625 5.91015625 -5.890625 3.84765625 C-4.63963255 1.07760155 -3.09008345 -0.13773628 0 0 Z " fill="#3b2f2f" transform="translate(28.015625,11.08984375)"/>
<path d="M0 0 C0.33 0 0.66 0 1 0 C1 4.62 1 9.24 1 14 C-0.98 14.99 -0.98 14.99 -3 16 C-4.0161692 11.37078475 -3.83796731 7.65537393 -3 3 C-2.34 3 -1.68 3 -1 3 C-0.67 2.01 -0.34 1.02 0 0 Z " fill="#3b2f2f" transform="translate(69,28)"/>
<path d="M0 0 C1.875 1.625 1.875 1.625 3 3 C2.67 3.99 2.34 4.98 2 6 C-1.82215227 5.46914552 -4.11756946 4.58424807 -7 2 C-7.66 1.01 -8.32 0.02 -9 -1 C-5.17456525 -2.27514492 -3.66576992 -1.52740413 0 0 Z " fill="#3b2f2f" transform="translate(53,4)"/>
<path d="M0 0 C1.65 1.32 3.3 2.64 5 4 C6.65 3.34 8.3 2.68 10 2 C10.33 3.32 10.66 4.64 11 6 C7.77208445 8.1519437 6.71599191 8.20086443 3 8 C0 2.25 0 2.25 0 0 Z " fill="#3b2f2f" transform="translate(25,19)"/>
<path d="M0 0 C4.29 0 8.58 0 13 0 C13 0.33 13 0.66 13 1 C12.37351562 1.03738281 11.74703125 1.07476562 11.1015625 1.11328125 C10.28429688 1.17902344 9.46703125 1.24476563 8.625 1.3125 C7.40683594 1.39951172 7.40683594 1.39951172 6.1640625 1.48828125 C3.62078662 1.82990528 3.62078662 1.82990528 2 5 C-0.625 5.6875 -0.625 5.6875 -3 6 C-3.33 5.01 -3.66 4.02 -4 3 C-3.01 2.67 -2.02 2.34 -1 2 C-0.67 1.34 -0.34 0.68 0 0 Z " fill="#3b2f2f" transform="translate(28,0)"/>
<path d="M0 0 C0.66 0.33 1.32 0.66 2 1 C2.25 3.3125 2.25 3.3125 2 6 C-0 7.8125 -0 7.8125 -2 9 C-2 6.69 -2 4.38 -2 2 C-1.34 2 -0.68 2 0 2 C0 1.34 0 0.68 0 0 Z " fill="#3b2f2f" transform="translate(2,34)"/>
<path d="M0 0 C0.33 0.66 0.66 1.32 1 2 C0.0925 2.598125 -0.815 3.19625 -1.75 3.8125 C-4.22901481 5.48106766 -6.63317911 7.17936855 -9 9 C-9.66 8.67 -10.32 8.34 -11 8 C-9.92130607 7.03644756 -8.83681257 6.07938583 -7.75 5.125 C-6.84507813 4.32449219 -6.84507813 4.32449219 -5.921875 3.5078125 C-4.02581254 2.0202513 -2.18709995 0.99677564 0 0 Z " fill="#3b2f2f" transform="translate(21,2)"/>
<path d="M0 0 C2.475 0.495 2.475 0.495 5 1 C5 2.32 5 3.64 5 5 C2.525 4.01 2.525 4.01 0 3 C0 2.01 0 1.02 0 0 Z " fill="#3b2f2f" transform="translate(48,5)"/>
</svg>
